<svg width="256" height="230" viewBox="0 0 256 230" fill="none" xmlns="http://www.w3.org/2000/svg">
<g clip-path="url(#clip0_5_7)">
<path d="M127.822 29.0058L128.222 29.4099L128.571 28.9613C128.987 28.4276 129.456 27.9237 129.979 27.4571C145.35 13.7605 158.237 5.30125 169.208 2.04939L169.066 1.57009L169.208 2.04936C175.723 0.117152 181.799 -0.0557619 187.312 1.79987L187.312 1.79991C193.128 3.75618 197.774 7.80431 201.064 13.5059C206.503 22.9334 207.964 35.37 205.915 50.8273C205.081 57.1241 203.653 63.989 201.632 71.4351L201.481 71.9933L202.055 72.0624C202.786 72.1504 203.519 72.3131 204.246 72.5537C223.748 79.0174 237.486 85.9454 245.773 93.8185L246.117 93.456L245.773 93.8185C250.697 98.4957 253.883 103.675 255.034 109.381C256.247 115.4 255.068 121.448 251.783 127.145C246.354 136.56 236.343 144.031 221.973 149.974C216.207 152.359 209.675 154.521 202.371 156.468L201.806 156.619L202.043 157.154C202.363 157.875 202.612 158.642 202.777 159.447C206.94 179.633 207.816 195.043 205.149 206.187C203.565 212.805 200.678 218.165 196.319 222.021C191.72 226.09 185.898 228.096 179.325 228.096C168.461 228.096 156.984 223.141 144.65 213.63C139.568 209.71 134.286 204.975 128.794 199.417L128.354 198.971L128.017 199.499C127.462 200.366 126.791 201.152 126.022 201.836L126.021 201.837C110.65 215.535 97.7636 223.993 86.7919 227.246C80.2773 229.178 74.2007 229.351 68.6886 227.495L68.6884 227.495C62.8725 225.539 58.2264 221.491 54.9361 215.789C49.4971 206.362 48.0361 193.925 50.0847 178.468C50.9501 171.944 52.4519 164.809 54.5891 157.05L54.7463 156.479L54.1574 156.42C53.34 156.337 52.5343 156.164 51.7547 155.905L51.7543 155.905C32.2523 149.442 18.5145 142.514 10.2274 134.641L9.88305 135.003L10.2274 134.64C5.30297 129.963 2.11722 124.784 0.966175 119.078C-0.246778 113.059 0.931979 107.01 4.2172 101.313C9.64618 91.8993 19.6572 84.4265 34.0271 78.4851L34.0272 78.485C39.9654 76.0283 46.7144 73.809 54.2833 71.8175L54.8334 71.6728L54.6193 71.1458C54.357 70.5004 54.154 69.8326 54.0126 69.1505C49.8497 48.9642 48.9736 33.5548 51.6413 22.4114C53.2256 15.7926 56.111 10.4328 60.4703 6.5765C65.0696 2.50834 70.8911 0.502001 77.465 0.502001C88.3284 0.502001 99.8063 5.4573 112.14 14.968C117.169 18.8458 122.392 23.5233 127.822 29.0058Z" stroke="white"/>
<path d="M183.466 93.831L183.466 93.8309C190.373 75.7141 194.542 60.4347 195.988 47.9838C197.436 35.5251 196.15 25.9579 192.22 19.2127C190.221 15.7812 187.66 13.5274 184.548 12.4012C181.428 11.2725 177.697 11.2564 173.326 12.4067C164.567 14.7122 153.375 21.6658 139.734 33.3528L183.466 93.831ZM183.466 93.831C183.254 94.3864 182.891 94.8715 182.418 95.2313C181.945 95.5911 181.381 95.8112 180.789 95.8668C180.197 95.9224 179.602 95.8112 179.07 95.5458C178.539 95.281 178.093 94.8733 177.782 94.3687C177.781 94.3675 177.781 94.3663 177.78 94.3651L177.726 94.2733L177.723 94.2677L177.08 93.1463L177.079 93.1457C171.896 84.1341 166.495 75.5798 160.877 67.4829L160.466 67.768L160.877 67.4829C154.259 57.9486 146.819 48.298 138.558 38.5311L138.176 38.854L138.558 38.531C138.028 37.9053 137.761 37.0995 137.81 36.2813C137.86 35.4646 138.222 34.6985 138.822 34.1417C138.823 34.1407 138.824 34.1397 138.825 34.1388L138.904 34.0678L138.911 34.062L139.733 33.3537L183.466 93.831ZM189.734 161.825L189.647 161.333L189.734 161.825C190.539 161.683 191.369 161.855 192.05 162.307C192.73 162.759 193.211 163.454 193.393 164.249C193.394 164.251 193.394 164.252 193.394 164.254L193.414 164.35L193.415 164.356L193.621 165.423C193.621 165.424 193.621 165.424 193.621 165.424C196.973 183.046 197.449 196.182 195.117 204.887C193.953 209.23 192.098 212.436 189.588 214.556C187.082 216.671 183.877 217.745 179.932 217.745C172.18 217.745 163.3 214.053 153.273 206.556C143.254 199.065 132.139 187.811 119.928 172.777C119.553 172.314 119.315 171.756 119.241 171.165C119.167 170.574 119.26 169.974 119.51 169.434C119.76 168.893 120.157 168.433 120.655 168.107C121.152 167.781 121.729 167.601 122.323 167.587L122.427 167.587L122.431 167.587L123.715 167.596L123.716 167.596C134.018 167.652 144.033 167.293 153.763 166.518C165.247 165.604 177.237 164.039 189.734 161.825ZM78.9202 136.148L78.9206 136.148C84.1039 145.16 89.5047 153.714 95.1232 161.811L95.534 161.526L95.1232 161.811C101.741 171.345 109.181 180.996 117.442 190.763L117.824 190.44L117.442 190.763C117.972 191.389 118.239 192.194 118.19 193.013C118.14 193.829 117.778 194.595 117.179 195.152C117.177 195.153 117.176 195.154 117.175 195.155L117.096 195.226L117.089 195.232L116.267 195.94C116.266 195.941 116.266 195.941 116.266 195.941C102.625 207.629 91.4334 214.582 82.6737 216.887C78.3029 218.038 74.5721 218.021 71.4524 216.893C68.3395 215.766 65.7794 213.512 63.78 210.08L63.348 210.332L63.78 210.08C59.8496 203.335 58.5644 193.768 60.0119 181.31C61.4584 168.859 65.6272 153.58 72.5342 135.463L72.5342 135.463C72.7458 134.908 73.1087 134.422 73.5818 134.063C74.0549 133.703 74.6192 133.483 75.211 133.427C75.8027 133.372 76.3982 133.483 76.93 133.748C77.4605 134.013 77.9064 134.42 78.2177 134.925C78.2185 134.926 78.2193 134.928 78.2201 134.929L78.2742 135.021L78.2774 135.026L78.9202 136.148ZM170.676 146.415L170.245 146.162L170.676 146.415C176.142 137.118 181.065 127.866 185.445 118.66L184.994 118.445L185.445 118.66C190.413 108.219 195.074 97.014 199.429 85.0459L198.959 84.875L199.429 85.0459C199.702 84.2949 200.247 83.6741 200.957 83.3066C201.665 82.94 202.485 82.8524 203.254 83.061C203.256 83.0614 203.258 83.0619 203.259 83.0623L203.354 83.0903L203.452 83.1227L203.458 83.1247L204.479 83.4762C204.479 83.4763 204.479 83.4765 204.48 83.4766C221.316 89.3338 232.852 95.4561 239.171 101.814C242.323 104.986 244.152 108.192 244.718 111.429C245.283 114.659 244.602 117.98 242.626 121.409C238.744 128.145 231.124 134.023 219.662 139.004C208.208 143.982 192.971 148.04 173.937 151.17C173.34 151.268 172.727 151.194 172.171 150.957C171.614 150.719 171.137 150.328 170.795 149.829C170.453 149.33 170.26 148.744 170.239 148.14C170.218 147.535 170.369 146.937 170.676 146.415ZM84.1922 77.1408L84.1928 77.1411C84.5533 77.3528 84.8685 77.6335 85.1205 77.9671C85.3726 78.3007 85.5564 78.6807 85.6615 79.0853C85.7667 79.49 85.791 79.9114 85.7333 80.3254C85.6755 80.7395 85.5368 81.1382 85.3249 81.4986C79.858 90.7951 74.9344 100.047 70.5545 109.254C65.587 119.694 60.926 130.899 56.5711 142.868C56.292 143.635 55.7288 144.266 54.9979 144.63C54.2684 144.993 53.4275 145.063 52.6484 144.824C52.6469 144.824 52.6453 144.823 52.6438 144.823L52.5482 144.791L52.5418 144.789L51.5213 144.437C34.6844 138.58 23.148 132.458 16.8291 126.1C13.6765 122.927 11.8479 119.722 11.2816 116.485C10.7165 113.255 11.3978 109.934 13.3742 106.505C17.2555 99.7693 24.8758 93.891 36.3375 88.9098C47.792 83.9317 63.0288 79.8732 82.0631 76.7433L82.0632 76.7433C82.7976 76.6224 83.5511 76.7632 84.1922 77.1408ZM133.666 61.239H133.666C123.365 61.1829 113.35 61.542 103.62 62.3165L103.66 62.815L103.62 62.3165C92.1349 63.2313 80.144 64.7958 67.6479 67.0096C66.8427 67.1521 66.0137 66.9793 65.3324 66.5272C64.6521 66.0757 64.1713 65.3801 63.9893 64.5843C63.989 64.5832 63.9888 64.5821 63.9885 64.581L63.9671 64.4798L63.7612 63.4115C60.4089 45.7891 59.9321 32.6535 62.2649 23.9481C63.4289 19.6046 65.283 16.3993 67.794 14.2792C70.2993 12.164 73.5045 11.09 77.45 11.09C85.202 11.09 94.0829 14.7824 104.109 22.2784C114.129 29.7696 125.244 41.0232 137.454 56.0572C137.829 56.5196 138.067 57.078 138.141 57.6689C138.215 58.2599 138.122 58.8598 137.872 59.4004C137.622 59.9409 137.225 60.4006 136.727 60.727C136.23 61.0525 135.653 61.2326 135.059 61.247H134.952H134.951L133.666 61.239Z" stroke="white"/>
<mask id="path-3-outside-1_5_7" maskUnits="userSpaceOnUse" x="80.577" y="72.67" width="93" height="84" fill="black">
<rect fill="white" x="80.577" y="72.67" width="93" height="84"/>
<path d="M111.295 73.67H142.871C145.14 73.6699 147.368 74.2686 149.331 75.4055C151.295 76.5424 152.923 78.1773 154.052 80.145L169.907 107.771C171.028 109.724 171.618 111.936 171.618 114.188C171.618 116.44 171.028 118.652 169.907 120.605L154.052 148.231C152.923 150.199 151.295 151.834 149.331 152.971C147.368 154.108 145.14 154.706 142.871 154.706H111.295C106.677 154.706 102.412 152.236 100.113 148.231L84.26 120.605C83.1391 118.652 82.5492 116.44 82.5492 114.188C82.5492 111.936 83.1391 109.724 84.26 107.771L100.114 80.145C101.243 78.1771 102.872 76.5421 104.835 75.4052C106.799 74.2683 109.026 73.6698 111.295 73.67ZM138.059 82.008C142.679 82.008 146.947 84.481 149.244 88.489L160.3 107.777C161.419 109.728 162.007 111.939 162.007 114.188C162.007 116.437 161.419 118.648 160.3 120.599L149.244 139.887C148.115 141.856 146.487 143.493 144.523 144.63C142.558 145.768 140.329 146.367 138.059 146.367H116.109C111.489 146.367 107.221 143.895 104.924 139.887L93.868 120.599C92.7493 118.648 92.1607 116.437 92.1607 114.188C92.1607 111.939 92.7493 109.728 93.868 107.777L104.924 88.489C106.053 86.5199 107.681 84.8837 109.645 83.7459C111.609 82.608 113.838 82.0089 116.108 82.009L138.059 82.008ZM132.872 91.128H121.296C119.028 91.1278 116.8 91.7258 114.838 92.8618C112.875 93.9978 111.247 95.6315 110.117 97.598L104.275 107.765C103.152 109.719 102.561 111.934 102.561 114.188C102.561 116.442 103.152 118.657 104.275 120.611L110.117 130.779C111.247 132.746 112.875 134.379 114.838 135.515C116.8 136.651 119.028 137.249 121.296 137.249H132.872C137.488 137.249 141.752 134.781 144.051 130.779L149.893 120.611C151.016 118.657 151.607 116.442 151.607 114.188C151.607 111.934 151.016 109.719 149.893 107.765L144.051 97.597C142.922 95.6305 141.293 93.9968 139.33 92.8608C137.368 91.7248 135.14 91.1278 132.872 91.128ZM127.878 99.856C132.49 99.856 136.751 102.32 139.051 106.316L139.88 107.756C141.006 109.712 141.599 111.93 141.599 114.187C141.599 116.444 141.006 118.662 139.88 120.618L139.051 122.058C137.921 124.022 136.293 125.653 134.331 126.787C132.37 127.921 130.144 128.518 127.878 128.518H126.29C124.024 128.518 121.798 127.921 119.837 126.787C117.875 125.653 116.247 124.022 115.117 122.058L114.288 120.618C113.162 118.662 112.569 116.444 112.569 114.187C112.569 111.93 113.162 109.712 114.288 107.756L115.117 106.316C116.247 104.352 117.875 102.721 119.837 101.587C121.798 100.453 124.024 99.8558 126.29 99.856H127.878ZM127.086 108.455C126.079 108.455 125.09 108.72 124.217 109.223C123.345 109.726 122.62 110.449 122.116 111.321C121.613 112.192 121.348 113.181 121.348 114.187C121.348 115.193 121.613 116.182 122.116 117.053C122.62 117.925 123.344 118.649 124.216 119.152C125.088 119.656 126.078 119.921 127.085 119.921C128.091 119.921 129.081 119.656 129.953 119.152C130.825 118.649 131.549 117.925 132.053 117.053C132.556 116.182 132.821 115.193 132.821 114.187C132.821 113.181 132.556 112.192 132.053 111.321C131.549 110.45 130.825 109.726 129.953 109.223C129.081 108.72 128.093 108.455 127.086 108.455ZM80.577 114.187H90.897Z"/>
</mask>
<path d="M111.295 73.67L111.295 74.67H111.295V73.67ZM142.871 73.67L142.871 74.67L142.871 74.67L142.871 73.67ZM154.052 80.145L153.185 80.6427L153.185 80.6428L154.052 80.145ZM169.907 107.771L169.04 108.269L169.04 108.269L169.907 107.771ZM169.907 120.605L169.04 120.107L169.04 120.107L169.907 120.605ZM154.052 148.231L153.185 147.733L153.185 147.733L154.052 148.231ZM142.871 154.706L142.871 153.706H142.871V154.706ZM100.113 148.231L99.2457 148.729L99.2458 148.729L100.113 148.231ZM84.26 120.605L85.1274 120.107L85.1273 120.107L84.26 120.605ZM82.5492 114.188H81.5492H82.5492ZM84.26 107.771L85.1273 108.269L85.1274 108.269L84.26 107.771ZM100.114 80.145L100.981 80.6428L100.981 80.6427L100.114 80.145ZM138.059 82.008L138.059 81.008L138.059 81.008L138.059 82.008ZM149.244 88.489L148.376 88.9863L148.376 88.9863L149.244 88.489ZM160.3 107.777L159.432 108.274L159.432 108.274L160.3 107.777ZM160.3 120.599L159.432 120.102L159.432 120.102L160.3 120.599ZM149.244 139.887L148.376 139.39L148.376 139.39L149.244 139.887ZM138.059 146.367L138.059 145.367H138.059V146.367ZM104.924 139.887L105.792 139.39L105.792 139.39L104.924 139.887ZM93.868 120.599L94.7356 120.102L94.7356 120.102L93.868 120.599ZM93.868 107.777L94.7356 108.274L94.7356 108.274L93.868 107.777ZM104.924 88.489L105.792 88.9863L105.792 88.9863L104.924 88.489ZM116.108 82.009L116.108 83.009L116.108 83.009L116.108 82.009ZM132.872 91.128L132.872 92.128L132.872 92.128L132.872 91.128ZM121.296 91.128L121.296 92.128H121.296V91.128ZM110.117 97.598L110.984 98.0963L110.984 98.0961L110.117 97.598ZM104.275 107.765L105.142 108.263L105.142 108.263L104.275 107.765ZM102.561 114.188H103.561H102.561ZM104.275 120.611L105.142 120.113L105.142 120.113L104.275 120.611ZM110.117 130.779L110.984 130.281L110.984 130.281L110.117 130.779ZM121.296 137.249L121.296 136.249L121.296 136.249L121.296 137.249ZM144.051 130.779L143.184 130.281L143.184 130.281L144.051 130.779ZM149.893 120.611L149.026 120.113L149.026 120.113L149.893 120.611ZM149.893 107.765L149.026 108.263L149.026 108.263L149.893 107.765ZM144.051 97.597L143.184 98.0951L143.184 98.0952L144.051 97.597ZM139.051 106.316L138.184 106.815L138.184 106.815L139.051 106.316ZM139.88 107.756L140.747 107.257L140.747 107.257L139.88 107.756ZM141.599 114.187L142.599 114.187L141.599 114.187ZM139.88 120.618L140.747 121.117L140.747 121.117L139.88 120.618ZM139.051 122.058L138.184 121.559L138.184 121.559L139.051 122.058ZM127.878 128.518L127.878 127.518H127.878V128.518ZM126.29 128.518V127.518L126.29 127.518L126.29 128.518ZM115.117 122.058L115.984 121.559L115.984 121.559L115.117 122.058ZM114.288 120.618L113.421 121.117L113.421 121.117L114.288 120.618ZM114.288 107.756L113.421 107.257L113.421 107.257L114.288 107.756ZM115.117 106.316L115.984 106.815L115.984 106.815L115.117 106.316ZM126.29 99.856L126.29 100.856H126.29V99.856ZM127.086 108.455L127.086 107.455L127.086 107.455L127.086 108.455ZM122.116 111.321L121.25 110.82L121.25 110.821L122.116 111.321ZM121.348 114.187L120.348 114.187L121.348 114.187ZM122.116 117.053L121.25 117.553L121.25 117.553L122.116 117.053ZM132.053 117.053L132.919 117.553L132.919 117.553L132.053 117.053ZM132.821 114.187L131.821 114.187L132.821 114.187ZM132.053 111.321L132.919 110.821L132.919 110.82L132.053 111.321ZM111.295 74.67H142.871V72.67H111.295V74.67ZM142.871 74.67C144.964 74.6699 147.019 75.2221 148.83 76.2708L149.833 74.5401C147.717 73.315 145.316 72.6699 142.871 72.67L142.871 74.67ZM148.83 76.2708C150.641 77.3195 152.143 78.8276 153.185 80.6427L154.919 79.6474C153.703 77.527 151.948 75.7652 149.833 74.5401L148.83 76.2708ZM153.185 80.6428L169.04 108.269L170.774 107.273L154.919 79.6473L153.185 80.6428ZM169.04 108.269C170.074 110.07 170.618 112.111 170.618 114.188H172.618C172.618 111.762 171.982 109.378 170.774 107.273L169.04 108.269ZM170.618 114.188C170.618 116.265 170.074 118.306 169.04 120.107L170.774 121.103C171.982 118.999 172.618 116.614 172.618 114.188H170.618ZM169.04 120.107L153.185 147.733L154.919 148.729L170.774 121.103L169.04 120.107ZM153.185 147.733C152.143 149.548 150.641 151.057 148.83 152.105L149.833 153.836C151.948 152.611 153.703 150.849 154.919 148.729L153.185 147.733ZM148.83 152.105C147.019 153.154 144.964 153.706 142.871 153.706L142.871 155.706C145.316 155.706 147.717 155.061 149.833 153.836L148.83 152.105ZM142.871 153.706H111.295V155.706H142.871V153.706ZM111.295 153.706C107.035 153.706 103.101 151.428 100.98 147.733L99.2458 148.729C101.723 153.044 106.319 155.706 111.295 155.706V153.706ZM100.98 147.733L85.1274 120.107L83.3927 121.103L99.2457 148.729L100.98 147.733ZM85.1273 120.107C84.0933 118.306 83.5492 116.265 83.5492 114.188H81.5492C81.5492 116.614 82.1848 118.999 83.3927 121.103L85.1273 120.107ZM83.5492 114.188C83.5492 112.111 84.0933 110.07 85.1273 108.269L83.3927 107.273C82.1848 109.378 81.5492 111.762 81.5492 114.188H83.5492ZM85.1274 108.269L100.981 80.6428L99.2467 79.6473L83.3927 107.273L85.1274 108.269ZM100.981 80.6427C102.023 78.8275 103.525 77.3193 105.336 76.2706L104.334 74.5398C102.218 75.765 100.463 77.5268 99.2467 79.6474L100.981 80.6427ZM105.336 76.2706C107.147 75.2219 109.202 74.6698 111.295 74.67L111.295 72.67C108.85 72.6697 106.45 73.3148 104.334 74.5398L105.336 76.2706ZM138.059 83.008C142.321 83.008 146.258 85.2893 148.376 88.9863L150.112 87.9918C147.636 83.6728 143.037 81.008 138.059 81.008V83.008ZM148.376 88.9863L159.432 108.274L161.168 107.28L150.112 87.9917L148.376 88.9863ZM159.432 108.274C160.464 110.074 161.007 112.113 161.007 114.188H163.007C163.007 111.764 162.373 109.382 161.168 107.28L159.432 108.274ZM161.007 114.188C161.007 116.263 160.464 118.302 159.432 120.102L161.168 121.096C162.373 118.994 163.007 116.612 163.007 114.188H161.007ZM159.432 120.102L148.376 139.39L150.112 140.384L161.168 121.096L159.432 120.102ZM148.376 139.39C147.335 141.206 145.833 142.716 144.021 143.765L145.024 145.496C147.14 144.27 148.895 142.506 150.112 140.384L148.376 139.39ZM144.021 143.765C142.21 144.815 140.153 145.367 138.059 145.367L138.059 147.367C140.505 147.367 142.907 146.722 145.024 145.496L144.021 143.765ZM138.059 145.367H116.109V147.367H138.059V145.367ZM116.109 145.367C111.847 145.367 107.91 143.087 105.792 139.39L104.056 140.384C106.532 144.703 111.131 147.367 116.109 147.367V145.367ZM105.792 139.39L94.7356 120.102L93.0004 121.096L104.056 140.384L105.792 139.39ZM94.7356 120.102C93.7036 118.302 93.1607 116.263 93.1607 114.188H91.1607C91.1607 116.612 91.7949 118.994 93.0005 121.096L94.7356 120.102ZM93.1607 114.188C93.1607 112.113 93.7036 110.074 94.7356 108.274L93.0005 107.28C91.7949 109.382 91.1607 111.764 91.1607 114.188H93.1607ZM94.7356 108.274L105.792 88.9863L104.056 87.9917L93.0004 107.28L94.7356 108.274ZM105.792 88.9863C106.833 87.17 108.335 85.6607 110.146 84.6111L109.144 82.8806C107.028 84.1067 105.273 85.8699 104.056 87.9918L105.792 88.9863ZM110.146 84.6111C111.958 83.5616 114.014 83.0089 116.108 83.009L116.108 81.009C113.662 81.0089 111.26 81.6545 109.144 82.8806L110.146 84.6111ZM116.108 83.009L138.059 83.008L138.059 81.008L116.108 81.009L116.108 83.009ZM132.872 90.128H121.296V92.128H132.872V90.128ZM121.296 90.128C118.852 90.1278 116.452 90.7722 114.337 91.9963L115.339 93.7273C117.149 92.6795 119.204 92.1278 121.296 92.128L121.296 90.128ZM114.337 91.9963C112.222 93.2204 110.467 94.9809 109.25 97.1L110.984 98.0961C112.026 96.2821 113.528 94.7752 115.339 93.7273L114.337 91.9963ZM109.25 97.0998L103.408 107.267L105.142 108.263L110.984 98.0963L109.25 97.0998ZM103.408 107.267C102.198 109.373 101.561 111.759 101.561 114.188H103.561C103.561 112.109 104.106 110.066 105.142 108.263L103.408 107.267ZM101.561 114.188C101.561 116.617 102.198 119.003 103.408 121.109L105.142 120.113C104.106 118.31 103.561 116.267 103.561 114.188H101.561ZM103.408 121.109L109.25 131.277L110.984 130.281L105.142 120.113L103.408 121.109ZM109.25 131.277C110.467 133.396 112.222 135.157 114.337 136.381L115.339 134.65C113.528 133.602 112.026 132.095 110.984 130.281L109.25 131.277ZM114.337 136.381C116.452 137.605 118.852 138.249 121.296 138.249L121.296 136.249C119.204 136.249 117.149 135.698 115.339 134.65L114.337 136.381ZM121.296 138.249H132.872V136.249H121.296V138.249ZM132.872 138.249C137.846 138.249 142.441 135.59 144.918 131.277L143.184 130.281C141.063 133.972 137.13 136.249 132.872 136.249V138.249ZM144.918 131.277L150.76 121.109L149.026 120.113L143.184 130.281L144.918 131.277ZM150.76 121.109C151.97 119.003 152.607 116.617 152.607 114.188H150.607C150.607 116.267 150.062 118.31 149.026 120.113L150.76 121.109ZM152.607 114.188C152.607 111.759 151.97 109.373 150.76 107.267L149.026 108.263C150.062 110.066 150.607 112.109 150.607 114.188H152.607ZM150.76 107.267L144.918 97.0989L143.184 98.0952L149.026 108.263L150.76 107.267ZM144.918 97.099C143.701 94.9799 141.946 93.2194 139.831 91.9953L138.829 93.7263C140.64 94.7742 142.142 96.2811 143.184 98.0951L144.918 97.099ZM139.831 91.9953C137.716 90.771 135.315 90.1278 132.872 90.128L132.872 92.128C134.964 92.1278 137.019 92.6786 138.829 93.7263L139.831 91.9953ZM127.878 100.856C132.132 100.856 136.063 103.129 138.184 106.815L139.918 105.817C137.439 101.511 132.848 98.856 127.878 98.856V100.856ZM138.184 106.815L139.013 108.255L140.747 107.257L139.918 105.817L138.184 106.815ZM139.013 108.255C140.052 110.059 140.599 112.105 140.599 114.187L142.599 114.187C142.599 111.755 141.96 109.365 140.747 107.257L139.013 108.255ZM140.599 114.187C140.599 116.269 140.052 118.315 139.013 120.119L140.747 121.117C141.96 119.009 142.599 116.619 142.599 114.187L140.599 114.187ZM139.013 120.119L138.184 121.559L139.918 122.557L140.747 121.117L139.013 120.119ZM138.184 121.559C137.142 123.371 135.64 124.875 133.831 125.921L134.832 127.653C136.946 126.431 138.7 124.673 139.918 122.557L138.184 121.559ZM133.831 125.921C132.021 126.968 129.968 127.518 127.878 127.518L127.878 129.518C130.32 129.518 132.718 128.875 134.832 127.653L133.831 125.921ZM127.878 127.518H126.29V129.518H127.878V127.518ZM126.29 127.518C124.2 127.518 122.147 126.968 120.337 125.921L119.336 127.653C121.45 128.875 123.849 129.518 126.29 129.518L126.29 127.518ZM120.337 125.921C118.528 124.875 117.026 123.371 115.984 121.559L114.25 122.557C115.468 124.673 117.223 126.431 119.336 127.653L120.337 125.921ZM115.984 121.559L115.155 120.119L113.421 121.117L114.25 122.557L115.984 121.559ZM115.155 120.119C114.116 118.315 113.569 116.269 113.569 114.187H111.569C111.569 116.619 112.208 119.009 113.421 121.117L115.155 120.119ZM113.569 114.187C113.569 112.105 114.116 110.059 115.155 108.255L113.421 107.257C112.208 109.365 111.569 111.755 111.569 114.187H113.569ZM115.155 108.255L115.984 106.815L114.25 105.817L113.421 107.257L115.155 108.255ZM115.984 106.815C117.026 105.003 118.528 103.499 120.337 102.453L119.336 100.721C117.223 101.943 115.468 103.701 114.25 105.817L115.984 106.815ZM120.337 102.453C122.147 101.407 124.2 100.856 126.29 100.856L126.29 98.856C123.849 98.8558 121.45 99.4992 119.336 100.721L120.337 102.453ZM126.29 100.856H127.878V98.856H126.29V100.856ZM127.086 107.455C125.904 107.455 124.742 107.766 123.718 108.356L124.717 110.089C125.437 109.673 126.254 109.455 127.086 109.455L127.086 107.455ZM123.718 108.356C122.693 108.947 121.842 109.797 121.25 110.82L122.982 111.822C123.398 111.102 123.996 110.504 124.717 110.089L123.718 108.356ZM121.25 110.821C120.659 111.844 120.348 113.005 120.348 114.187H122.348C122.348 113.356 122.566 112.54 122.982 111.821L121.25 110.821ZM120.348 114.187C120.348 115.369 120.659 116.53 121.25 117.553L122.982 116.553C122.566 115.834 122.348 115.018 122.348 114.187L120.348 114.187ZM121.25 117.553C121.842 118.577 122.692 119.427 123.716 120.018L124.716 118.286C123.996 117.871 123.398 117.273 122.982 116.553L121.25 117.553ZM123.716 120.018C124.74 120.61 125.902 120.921 127.085 120.921V118.921C126.253 118.921 125.436 118.702 124.716 118.286L123.716 120.018ZM127.085 120.921C128.267 120.921 129.429 120.61 130.453 120.018L129.453 118.286C128.733 118.702 127.916 118.921 127.085 118.921V120.921ZM130.453 120.018C131.477 119.427 132.327 118.577 132.919 117.553L131.187 116.553C130.771 117.273 130.173 117.871 129.453 118.286L130.453 120.018ZM132.919 117.553C133.51 116.53 133.821 115.369 133.821 114.187L131.821 114.187C131.821 115.018 131.603 115.834 131.187 116.553L132.919 117.553ZM133.821 114.187C133.821 113.005 133.51 111.844 132.919 110.821L131.187 111.821C131.603 112.54 131.821 113.356 131.821 114.187L133.821 114.187ZM132.919 110.82C132.327 109.797 131.477 108.948 130.453 108.357L129.453 110.089C130.173 110.505 130.771 111.102 131.187 111.822L132.919 110.82ZM130.453 108.357C129.429 107.766 128.268 107.455 127.086 107.455L127.086 109.455C127.917 109.455 128.733 109.674 129.453 110.089L130.453 108.357ZM80.577 115.187H90.897V113.187H80.577V115.187Z" fill="white" mask="url(#path-3-outside-1_5_7)"/>
</g>
<defs>
<clipPath id="clip0_5_7">
<rect width="256" height="230" fill="white"/>
</clipPath>
</defs>
</svg>
